<?xml version="1.0" encoding="UTF-8" standalone="no"?><svg xmlns="http://www.w3.org/2000/svg" xmlns:xlink="http://www.w3.org/1999/xlink" contentStyleType="text/css" height="364px" preserveAspectRatio="none" style="width:578px;height:364px;background:#FFFFFF;" version="1.1" viewBox="0 0 578 364" width="578px" zoomAndPan="magnify"><defs/><g><ellipse cx="125.5" cy="50.0957" fill="#222222" rx="10" ry="10" style="stroke:#222222;stroke-width:1.0;"/><rect fill="#F1F1F1" height="35.0938" rx="12.5" ry="12.5" style="stroke:#181818;stroke-width:0.5;" width="113" x="69" y="80.0957"/><text fill="#000000" font-family="sans-serif" font-size="12" lengthAdjust="spacing" textLength="93" x="79" y="102.5527">Memilih Alternatif</text><rect fill="#F1F1F1" height="50.1875" rx="12.5" ry="12.5" style="stroke:#181818;stroke-width:0.5;" width="209" x="21" y="260.4707"/><text fill="#000000" font-family="sans-serif" font-size="12" lengthAdjust="spacing" textLength="189" x="31" y="282.9277">Pengguna Mendapatkan informasi</text><text fill="#000000" font-family="sans-serif" font-size="12" lengthAdjust="spacing" textLength="112" x="31" y="298.0215">alternatif yang dipilih</text><ellipse cx="125.5" cy="341.6582" fill="none" rx="11" ry="11" style="stroke:#222222;stroke-width:1.0;"/><ellipse cx="125.5" cy="341.6582" fill="#222222" rx="6" ry="6" style="stroke:#111111;stroke-width:1.0;"/><line style="stroke:#000000;stroke-width:1.5;" x1="15" x2="15" y1="12.4551" y2="352.6582"/><rect fill="#F1F1F1" height="35.0938" rx="12.5" ry="12.5" style="stroke:#181818;stroke-width:0.5;" width="113" x="240" y="135.1895"/><text fill="#000000" font-family="sans-serif" font-size="12" lengthAdjust="spacing" textLength="93" x="250" y="157.6465">Memilih alternatif</text><line style="stroke:#000000;stroke-width:1.5;" x1="234" x2="234" y1="12.4551" y2="352.6582"/><rect fill="#F1F1F1" height="50.1875" rx="12.5" ry="12.5" style="stroke:#181818;stroke-width:0.5;" width="192" x="363" y="190.2832"/><text fill="#000000" font-family="sans-serif" font-size="12" lengthAdjust="spacing" textLength="172" x="373" y="212.7402">Membuat tabel baru yang berisi</text><text fill="#000000" font-family="sans-serif" font-size="12" lengthAdjust="spacing" textLength="112" x="373" y="227.834">alternatif yang dipilih</text><line style="stroke:#000000;stroke-width:1.5;" x1="357" x2="357" y1="12.4551" y2="352.6582"/><line style="stroke:#000000;stroke-width:1.5;" x1="559" x2="559" y1="12.4551" y2="352.6582"/><line style="stroke:#181818;stroke-width:1.0;" x1="125.5" x2="125.5" y1="60.0957" y2="80.0957"/><polygon fill="#181818" points="121.5,70.0957,125.5,80.0957,129.5,70.0957,125.5,74.0957" style="stroke:#181818;stroke-width:1.0;"/><line style="stroke:#181818;stroke-width:1.0;" x1="125.5" x2="125.5" y1="310.6582" y2="330.6582"/><polygon fill="#181818" points="121.5,320.6582,125.5,330.6582,129.5,320.6582,125.5,324.6582" style="stroke:#181818;stroke-width:1.0;"/><line style="stroke:#181818;stroke-width:1.0;" x1="125.5" x2="125.5" y1="115.1895" y2="120.1895"/><line style="stroke:#181818;stroke-width:1.0;" x1="125.5" x2="296.5" y1="120.1895" y2="120.1895"/><line style="stroke:#181818;stroke-width:1.0;" x1="296.5" x2="296.5" y1="120.1895" y2="135.1895"/><polygon fill="#181818" points="292.5,125.1895,296.5,135.1895,300.5,125.1895,296.5,129.1895" style="stroke:#181818;stroke-width:1.0;"/><line style="stroke:#181818;stroke-width:1.0;" x1="296.5" x2="296.5" y1="170.2832" y2="175.2832"/><line style="stroke:#181818;stroke-width:1.0;" x1="296.5" x2="459" y1="175.2832" y2="175.2832"/><line style="stroke:#181818;stroke-width:1.0;" x1="459" x2="459" y1="175.2832" y2="190.2832"/><polygon fill="#181818" points="455,180.2832,459,190.2832,463,180.2832,459,184.2832" style="stroke:#181818;stroke-width:1.0;"/><line style="stroke:#181818;stroke-width:1.0;" x1="459" x2="459" y1="240.4707" y2="245.4707"/><line style="stroke:#181818;stroke-width:1.0;" x1="459" x2="125.5" y1="245.4707" y2="245.4707"/><line style="stroke:#181818;stroke-width:1.0;" x1="125.5" x2="125.5" y1="245.4707" y2="260.4707"/><polygon fill="#181818" points="121.5,250.4707,125.5,260.4707,129.5,250.4707,125.5,254.4707" style="stroke:#181818;stroke-width:1.0;"/><text fill="#000000" font-family="sans-serif" font-size="18" lengthAdjust="spacing" textLength="61" x="94" y="31.1406">Aplikasi</text><text fill="#000000" font-family="sans-serif" font-size="18" lengthAdjust="spacing" textLength="82" x="254.5" y="31.1406">Pengguna</text><text fill="#000000" font-family="sans-serif" font-size="18" lengthAdjust="spacing" textLength="53" x="431.5" y="31.1406">Server</text><!--MD5=[efcdadb615d59ae263463ba130afda5a]
@startuml "Activity Diagram Alternatif Skripsi"
skinparam style strictuml
|Aplikasi|
start
:Memilih Alternatif;
|Pengguna|
:Memilih alternatif;
|Server|
:Membuat tabel baru yang berisi
alternatif yang dipilih;
|Aplikasi|
:Pengguna Mendapatkan informasi
alternatif yang dipilih;
stop
@enduml

PlantUML version 1.2022.7(Tue Aug 23 00:01:30 WIB 2022)
(GPL source distribution)
Java Runtime: Java(TM) SE Runtime Environment
JVM: Java HotSpot(TM) 64-Bit Server VM
Default Encoding: Cp1252
Language: en
Country: US
--></g></svg>