<?xml version="1.0" encoding="UTF-8" standalone="no"?><svg xmlns="http://www.w3.org/2000/svg" xmlns:xlink="http://www.w3.org/1999/xlink" contentStyleType="text/css" height="419px" preserveAspectRatio="none" style="width:848px;height:419px;background:#FFFFFF;" version="1.1" viewBox="0 0 848 419" width="848px" zoomAndPan="magnify"><defs/><g><ellipse cx="129" cy="50.0957" fill="#222222" rx="10" ry="10" style="stroke:#222222;stroke-width:1.0;"/><rect fill="#F1F1F1" height="35.0938" rx="12.5" ry="12.5" style="stroke:#181818;stroke-width:0.5;" width="216" x="21" y="80.0957"/><text fill="#000000" font-family="sans-serif" font-size="12" lengthAdjust="spacing" textLength="196" x="31" y="102.5527">Memilih Menambahkan Sub-Kriteria</text><rect fill="#F1F1F1" height="50.1875" rx="12.5" ry="12.5" style="stroke:#181818;stroke-width:0.5;" width="209" x="24.5" y="315.5645"/><text fill="#000000" font-family="sans-serif" font-size="12" lengthAdjust="spacing" textLength="189" x="34.5" y="338.0215">Pengguna Mendapatkan informasi</text><text fill="#000000" font-family="sans-serif" font-size="12" lengthAdjust="spacing" textLength="128" x="34.5" y="353.1152">sub-kriteria yang dibuat</text><ellipse cx="129" cy="396.752" fill="none" rx="11" ry="11" style="stroke:#222222;stroke-width:1.0;"/><ellipse cx="129" cy="396.752" fill="#222222" rx="6" ry="6" style="stroke:#111111;stroke-width:1.0;"/><line style="stroke:#000000;stroke-width:1.5;" x1="15" x2="15" y1="12.4551" y2="407.752"/><rect fill="#F1F1F1" height="35.0938" rx="12.5" ry="12.5" style="stroke:#181818;stroke-width:0.5;" width="288" x="247" y="135.1895"/><text fill="#000000" font-family="sans-serif" font-size="12" lengthAdjust="spacing" textLength="268" x="257" y="157.6465">Memilih Kriteria yang akan dibuat Sub-Kriterianya</text><rect fill="#F1F1F1" height="50.1875" rx="12.5" ry="12.5" style="stroke:#181818;stroke-width:0.5;" width="214" x="284" y="190.2832"/><text fill="#000000" font-family="sans-serif" font-size="12" lengthAdjust="spacing" textLength="191" x="294" y="212.7402">Menentukan nama sub-kriteria dan</text><text fill="#000000" font-family="sans-serif" font-size="12" lengthAdjust="spacing" textLength="194" x="294" y="227.834">bobot nilai dari sub-kriteria tersebut</text><line style="stroke:#000000;stroke-width:1.5;" x1="241" x2="241" y1="12.4551" y2="407.752"/><rect fill="#F1F1F1" height="35.0938" rx="12.5" ry="12.5" style="stroke:#181818;stroke-width:0.5;" width="280" x="545" y="260.4707"/><text fill="#000000" font-family="sans-serif" font-size="12" lengthAdjust="spacing" textLength="260" x="555" y="282.9277">Menambahkan data sub-kriteria pada database</text><line style="stroke:#000000;stroke-width:1.5;" x1="539" x2="539" y1="12.4551" y2="407.752"/><line style="stroke:#000000;stroke-width:1.5;" x1="829" x2="829" y1="12.4551" y2="407.752"/><line style="stroke:#181818;stroke-width:1.0;" x1="129" x2="129" y1="60.0957" y2="80.0957"/><polygon fill="#181818" points="125,70.0957,129,80.0957,133,70.0957,129,74.0957" style="stroke:#181818;stroke-width:1.0;"/><line style="stroke:#181818;stroke-width:1.0;" x1="129" x2="129" y1="365.752" y2="385.752"/><polygon fill="#181818" points="125,375.752,129,385.752,133,375.752,129,379.752" style="stroke:#181818;stroke-width:1.0;"/><line style="stroke:#181818;stroke-width:1.0;" x1="391" x2="391" y1="170.2832" y2="190.2832"/><polygon fill="#181818" points="387,180.2832,391,190.2832,395,180.2832,391,184.2832" style="stroke:#181818;stroke-width:1.0;"/><line style="stroke:#181818;stroke-width:1.0;" x1="129" x2="129" y1="115.1895" y2="120.1895"/><line style="stroke:#181818;stroke-width:1.0;" x1="129" x2="391" y1="120.1895" y2="120.1895"/><line style="stroke:#181818;stroke-width:1.0;" x1="391" x2="391" y1="120.1895" y2="135.1895"/><polygon fill="#181818" points="387,125.1895,391,135.1895,395,125.1895,391,129.1895" style="stroke:#181818;stroke-width:1.0;"/><line style="stroke:#181818;stroke-width:1.0;" x1="391" x2="391" y1="240.4707" y2="245.4707"/><line style="stroke:#181818;stroke-width:1.0;" x1="391" x2="685" y1="245.4707" y2="245.4707"/><line style="stroke:#181818;stroke-width:1.0;" x1="685" x2="685" y1="245.4707" y2="260.4707"/><polygon fill="#181818" points="681,250.4707,685,260.4707,689,250.4707,685,254.4707" style="stroke:#181818;stroke-width:1.0;"/><line style="stroke:#181818;stroke-width:1.0;" x1="685" x2="685" y1="295.5645" y2="300.5645"/><line style="stroke:#181818;stroke-width:1.0;" x1="685" x2="129" y1="300.5645" y2="300.5645"/><line style="stroke:#181818;stroke-width:1.0;" x1="129" x2="129" y1="300.5645" y2="315.5645"/><polygon fill="#181818" points="125,305.5645,129,315.5645,133,305.5645,129,309.5645" style="stroke:#181818;stroke-width:1.0;"/><text fill="#000000" font-family="sans-serif" font-size="18" lengthAdjust="spacing" textLength="61" x="97.5" y="31.1406">Aplikasi</text><text fill="#000000" font-family="sans-serif" font-size="18" lengthAdjust="spacing" textLength="82" x="349" y="31.1406">Pengguna</text><text fill="#000000" font-family="sans-serif" font-size="18" lengthAdjust="spacing" textLength="53" x="657.5" y="31.1406">Server</text><!--MD5=[64d3d5d78555f814f1c0c4e32abacc3b]
@startuml "Activity Diagram Sub-Kriteria Skripsi"
skinparam style strictuml
|Aplikasi|
start
:Memilih Menambahkan Sub-Kriteria;
|Pengguna|
:Memilih Kriteria yang akan dibuat Sub-Kriterianya;
:Menentukan nama sub-kriteria dan
bobot nilai dari sub-kriteria tersebut;
|Server|
:Menambahkan data sub-kriteria pada database;
|Aplikasi|
:Pengguna Mendapatkan informasi
sub-kriteria yang dibuat;
stop
@enduml

PlantUML version 1.2022.7(Tue Aug 23 00:01:30 WIB 2022)
(GPL source distribution)
Java Runtime: Java(TM) SE Runtime Environment
JVM: Java HotSpot(TM) 64-Bit Server VM
Default Encoding: Cp1252
Language: en
Country: US
--></g></svg>