<?xml version="1.0" encoding="UTF-8" standalone="no"?><svg xmlns="http://www.w3.org/2000/svg" xmlns:xlink="http://www.w3.org/1999/xlink" contentStyleType="text/css" height="364px" preserveAspectRatio="none" style="width:754px;height:364px;background:#FFFFFF;" version="1.1" viewBox="0 0 754 364" width="754px" zoomAndPan="magnify"><defs/><g><ellipse cx="125.5" cy="50.0957" fill="#222222" rx="10" ry="10" style="stroke:#222222;stroke-width:1.0;"/><rect fill="#F1F1F1" height="35.0938" rx="12.5" ry="12.5" style="stroke:#181818;stroke-width:0.5;" width="190" x="30.5" y="80.0957"/><text fill="#000000" font-family="sans-serif" font-size="12" lengthAdjust="spacing" textLength="170" x="40.5" y="102.5527">Memilih Menambahkan Kriteria</text><rect fill="#F1F1F1" height="50.1875" rx="12.5" ry="12.5" style="stroke:#181818;stroke-width:0.5;" width="209" x="21" y="260.4707"/><text fill="#000000" font-family="sans-serif" font-size="12" lengthAdjust="spacing" textLength="189" x="31" y="282.9277">Pengguna Mendapatkan informasi</text><text fill="#000000" font-family="sans-serif" font-size="12" lengthAdjust="spacing" textLength="102" x="31" y="298.0215">kriteria yang dipilih</text><ellipse cx="125.5" cy="341.6582" fill="none" rx="11" ry="11" style="stroke:#222222;stroke-width:1.0;"/><ellipse cx="125.5" cy="341.6582" fill="#222222" rx="6" ry="6" style="stroke:#111111;stroke-width:1.0;"/><line style="stroke:#000000;stroke-width:1.5;" x1="15" x2="15" y1="12.4551" y2="352.6582"/><rect fill="#F1F1F1" height="50.1875" rx="12.5" ry="12.5" style="stroke:#181818;stroke-width:0.5;" width="226" x="240" y="135.1895"/><text fill="#000000" font-family="sans-serif" font-size="12" lengthAdjust="spacing" textLength="206" x="250" y="157.6465">Mengisi kolom nama, kode database,</text><text fill="#000000" font-family="sans-serif" font-size="12" lengthAdjust="spacing" textLength="84" x="250" y="172.7402">tipe data, bobot</text><line style="stroke:#000000;stroke-width:1.5;" x1="234" x2="234" y1="12.4551" y2="352.6582"/><rect fill="#F1F1F1" height="35.0938" rx="12.5" ry="12.5" style="stroke:#181818;stroke-width:0.5;" width="255" x="476" y="205.377"/><text fill="#000000" font-family="sans-serif" font-size="12" lengthAdjust="spacing" textLength="235" x="486" y="227.834">Menambahkan data kriteria pada database</text><line style="stroke:#000000;stroke-width:1.5;" x1="470" x2="470" y1="12.4551" y2="352.6582"/><line style="stroke:#000000;stroke-width:1.5;" x1="735" x2="735" y1="12.4551" y2="352.6582"/><line style="stroke:#181818;stroke-width:1.0;" x1="125.5" x2="125.5" y1="60.0957" y2="80.0957"/><polygon fill="#181818" points="121.5,70.0957,125.5,80.0957,129.5,70.0957,125.5,74.0957" style="stroke:#181818;stroke-width:1.0;"/><line style="stroke:#181818;stroke-width:1.0;" x1="125.5" x2="125.5" y1="310.6582" y2="330.6582"/><polygon fill="#181818" points="121.5,320.6582,125.5,330.6582,129.5,320.6582,125.5,324.6582" style="stroke:#181818;stroke-width:1.0;"/><line style="stroke:#181818;stroke-width:1.0;" x1="125.5" x2="125.5" y1="115.1895" y2="120.1895"/><line style="stroke:#181818;stroke-width:1.0;" x1="125.5" x2="353" y1="120.1895" y2="120.1895"/><line style="stroke:#181818;stroke-width:1.0;" x1="353" x2="353" y1="120.1895" y2="135.1895"/><polygon fill="#181818" points="349,125.1895,353,135.1895,357,125.1895,353,129.1895" style="stroke:#181818;stroke-width:1.0;"/><line style="stroke:#181818;stroke-width:1.0;" x1="353" x2="353" y1="185.377" y2="190.377"/><line style="stroke:#181818;stroke-width:1.0;" x1="353" x2="603.5" y1="190.377" y2="190.377"/><line style="stroke:#181818;stroke-width:1.0;" x1="603.5" x2="603.5" y1="190.377" y2="205.377"/><polygon fill="#181818" points="599.5,195.377,603.5,205.377,607.5,195.377,603.5,199.377" style="stroke:#181818;stroke-width:1.0;"/><line style="stroke:#181818;stroke-width:1.0;" x1="603.5" x2="603.5" y1="240.4707" y2="245.4707"/><line style="stroke:#181818;stroke-width:1.0;" x1="603.5" x2="125.5" y1="245.4707" y2="245.4707"/><line style="stroke:#181818;stroke-width:1.0;" x1="125.5" x2="125.5" y1="245.4707" y2="260.4707"/><polygon fill="#181818" points="121.5,250.4707,125.5,260.4707,129.5,250.4707,125.5,254.4707" style="stroke:#181818;stroke-width:1.0;"/><text fill="#000000" font-family="sans-serif" font-size="18" lengthAdjust="spacing" textLength="61" x="94" y="31.1406">Aplikasi</text><text fill="#000000" font-family="sans-serif" font-size="18" lengthAdjust="spacing" textLength="82" x="311" y="31.1406">Pengguna</text><text fill="#000000" font-family="sans-serif" font-size="18" lengthAdjust="spacing" textLength="53" x="576" y="31.1406">Server</text><!--MD5=[2008b3901fd631408eacbaa259474c27]
@startuml "Activity Diagram Skripsi"
skinparam style strictuml
|Aplikasi|
start
:Memilih Menambahkan Kriteria;
|Pengguna|
:Mengisi kolom nama, kode database,
tipe data, bobot;
|Server|
:Menambahkan data kriteria pada database;
|Aplikasi|
:Pengguna Mendapatkan informasi
kriteria yang dipilih;
stop
@enduml

PlantUML version 1.2022.7(Tue Aug 23 00:01:30 WIB 2022)
(GPL source distribution)
Java Runtime: Java(TM) SE Runtime Environment
JVM: Java HotSpot(TM) 64-Bit Server VM
Default Encoding: Cp1252
Language: en
Country: US
--></g></svg>