<?xml version="1.0" encoding="UTF-8" standalone="no"?><svg xmlns="http://www.w3.org/2000/svg" xmlns:xlink="http://www.w3.org/1999/xlink" contentStyleType="text/css" height="529px" preserveAspectRatio="none" style="width:838px;height:529px;background:#FFFFFF;" version="1.1" viewBox="0 0 838 529" width="838px" zoomAndPan="magnify"><defs/><g><ellipse cx="174.5" cy="50.0957" fill="#222222" rx="10" ry="10" style="stroke:#222222;stroke-width:1.0;"/><rect fill="#F1F1F1" height="35.0938" rx="12.5" ry="12.5" style="stroke:#181818;stroke-width:0.5;" width="206" x="71.5" y="80.0957"/><text fill="#000000" font-family="sans-serif" font-size="12" lengthAdjust="spacing" textLength="186" x="81.5" y="102.5527">Memilih Nilai Kepentingan Kriteria</text><rect fill="#F1F1F1" height="35.0938" rx="12.5" ry="12.5" style="stroke:#181818;stroke-width:0.5;" width="282" x="33.5" y="135.1895"/><text fill="#000000" font-family="sans-serif" font-size="12" lengthAdjust="spacing" textLength="262" x="43.5" y="157.6465">Menampilkan kolom perbandingan antar kriteria</text><rect fill="#F1F1F1" height="35.0938" rx="12.5" ry="12.5" style="stroke:#181818;stroke-width:0.5;" width="307" x="21" y="315.5645"/><text fill="#000000" font-family="sans-serif" font-size="12" lengthAdjust="spacing" textLength="287" x="31" y="338.0215">Menampilkan kolom perbandingan antar sub-kriteria</text><line style="stroke:#000000;stroke-width:1.5;" x1="15" x2="15" y1="12.4551" y2="517.9395"/><rect fill="#F1F1F1" height="50.1875" rx="12.5" ry="12.5" style="stroke:#181818;stroke-width:0.5;" width="191" x="338" y="190.2832"/><text fill="#000000" font-family="sans-serif" font-size="12" lengthAdjust="spacing" textLength="171" x="348" y="212.7402">Memasukkan nilai kepentingan</text><text fill="#000000" font-family="sans-serif" font-size="12" lengthAdjust="spacing" textLength="91" x="348" y="227.834">antar tiap kriteria</text><rect fill="#F1F1F1" height="50.1875" rx="12.5" ry="12.5" style="stroke:#181818;stroke-width:0.5;" width="191" x="338" y="370.6582"/><text fill="#000000" font-family="sans-serif" font-size="12" lengthAdjust="spacing" textLength="171" x="348" y="393.1152">Memasukkan nilai kepentingan</text><text fill="#000000" font-family="sans-serif" font-size="12" lengthAdjust="spacing" textLength="116" x="348" y="408.209">antar tiap sub-kriteria</text><line style="stroke:#000000;stroke-width:1.5;" x1="332" x2="332" y1="12.4551" y2="517.9395"/><rect fill="#F1F1F1" height="35.0938" rx="12.5" ry="12.5" style="stroke:#181818;stroke-width:0.5;" width="251" x="551.5" y="260.4707"/><text fill="#000000" font-family="sans-serif" font-size="12" lengthAdjust="spacing" textLength="231" x="561.5" y="282.9277">Menyimpan nilai kepentingan antar kriteria</text><rect fill="#F1F1F1" height="35.0938" rx="12.5" ry="12.5" style="stroke:#181818;stroke-width:0.5;" width="276" x="539" y="440.8457"/><text fill="#000000" font-family="sans-serif" font-size="12" lengthAdjust="spacing" textLength="256" x="549" y="463.3027">Menyimpan nilai kepentingan antar sub-kriteria</text><ellipse cx="677" cy="506.9395" fill="none" rx="11" ry="11" style="stroke:#222222;stroke-width:1.0;"/><ellipse cx="677" cy="506.9395" fill="#222222" rx="6" ry="6" style="stroke:#111111;stroke-width:1.0;"/><line style="stroke:#000000;stroke-width:1.5;" x1="533" x2="533" y1="12.4551" y2="517.9395"/><line style="stroke:#000000;stroke-width:1.5;" x1="819" x2="819" y1="12.4551" y2="517.9395"/><line style="stroke:#181818;stroke-width:1.0;" x1="174.5" x2="174.5" y1="60.0957" y2="80.0957"/><polygon fill="#181818" points="170.5,70.0957,174.5,80.0957,178.5,70.0957,174.5,74.0957" style="stroke:#181818;stroke-width:1.0;"/><line style="stroke:#181818;stroke-width:1.0;" x1="174.5" x2="174.5" y1="115.1895" y2="135.1895"/><polygon fill="#181818" points="170.5,125.1895,174.5,135.1895,178.5,125.1895,174.5,129.1895" style="stroke:#181818;stroke-width:1.0;"/><line style="stroke:#181818;stroke-width:1.0;" x1="677" x2="677" y1="475.9395" y2="495.9395"/><polygon fill="#181818" points="673,485.9395,677,495.9395,681,485.9395,677,489.9395" style="stroke:#181818;stroke-width:1.0;"/><line style="stroke:#181818;stroke-width:1.0;" x1="174.5" x2="174.5" y1="170.2832" y2="175.2832"/><line style="stroke:#181818;stroke-width:1.0;" x1="174.5" x2="433.5" y1="175.2832" y2="175.2832"/><line style="stroke:#181818;stroke-width:1.0;" x1="433.5" x2="433.5" y1="175.2832" y2="190.2832"/><polygon fill="#181818" points="429.5,180.2832,433.5,190.2832,437.5,180.2832,433.5,184.2832" style="stroke:#181818;stroke-width:1.0;"/><line style="stroke:#181818;stroke-width:1.0;" x1="433.5" x2="433.5" y1="240.4707" y2="245.4707"/><line style="stroke:#181818;stroke-width:1.0;" x1="433.5" x2="677" y1="245.4707" y2="245.4707"/><line style="stroke:#181818;stroke-width:1.0;" x1="677" x2="677" y1="245.4707" y2="260.4707"/><polygon fill="#181818" points="673,250.4707,677,260.4707,681,250.4707,677,254.4707" style="stroke:#181818;stroke-width:1.0;"/><line style="stroke:#181818;stroke-width:1.0;" x1="677" x2="677" y1="295.5645" y2="300.5645"/><line style="stroke:#181818;stroke-width:1.0;" x1="677" x2="174.5" y1="300.5645" y2="300.5645"/><line style="stroke:#181818;stroke-width:1.0;" x1="174.5" x2="174.5" y1="300.5645" y2="315.5645"/><polygon fill="#181818" points="170.5,305.5645,174.5,315.5645,178.5,305.5645,174.5,309.5645" style="stroke:#181818;stroke-width:1.0;"/><line style="stroke:#181818;stroke-width:1.0;" x1="174.5" x2="174.5" y1="350.6582" y2="355.6582"/><line style="stroke:#181818;stroke-width:1.0;" x1="174.5" x2="433.5" y1="355.6582" y2="355.6582"/><line style="stroke:#181818;stroke-width:1.0;" x1="433.5" x2="433.5" y1="355.6582" y2="370.6582"/><polygon fill="#181818" points="429.5,360.6582,433.5,370.6582,437.5,360.6582,433.5,364.6582" style="stroke:#181818;stroke-width:1.0;"/><line style="stroke:#181818;stroke-width:1.0;" x1="433.5" x2="433.5" y1="420.8457" y2="425.8457"/><line style="stroke:#181818;stroke-width:1.0;" x1="433.5" x2="677" y1="425.8457" y2="425.8457"/><line style="stroke:#181818;stroke-width:1.0;" x1="677" x2="677" y1="425.8457" y2="440.8457"/><polygon fill="#181818" points="673,430.8457,677,440.8457,681,430.8457,677,434.8457" style="stroke:#181818;stroke-width:1.0;"/><text fill="#000000" font-family="sans-serif" font-size="18" lengthAdjust="spacing" textLength="61" x="143" y="31.1406">Aplikasi</text><text fill="#000000" font-family="sans-serif" font-size="18" lengthAdjust="spacing" textLength="82" x="391.5" y="31.1406">Pengguna</text><text fill="#000000" font-family="sans-serif" font-size="18" lengthAdjust="spacing" textLength="53" x="649.5" y="31.1406">Server</text><!--MD5=[500e909c5c61a82a517726bf2b3119c2]
@startuml "Activity Diagram Nilai Kepentingan Kriteria Skripsi"
skinparam style strictuml
|Aplikasi|
start
:Memilih Nilai Kepentingan Kriteria;
:Menampilkan kolom perbandingan antar kriteria;
|Pengguna|
:Memasukkan nilai kepentingan
antar tiap kriteria;
|Server|
:Menyimpan nilai kepentingan antar kriteria;
|Aplikasi|
:Menampilkan kolom perbandingan antar sub-kriteria;
|Pengguna|
:Memasukkan nilai kepentingan
antar tiap sub-kriteria;
|Server|
:Menyimpan nilai kepentingan antar sub-kriteria;
stop
@enduml

PlantUML version 1.2022.7(Tue Aug 23 00:01:30 WIB 2022)
(GPL source distribution)
Java Runtime: Java(TM) SE Runtime Environment
JVM: Java HotSpot(TM) 64-Bit Server VM
Default Encoding: Cp1252
Language: en
Country: US
--></g></svg>