<?xml version="1.0" encoding="UTF-8" standalone="no"?><svg xmlns="http://www.w3.org/2000/svg" xmlns:xlink="http://www.w3.org/1999/xlink" contentStyleType="text/css" height="364px" preserveAspectRatio="none" style="width:669px;height:364px;background:#FFFFFF;" version="1.1" viewBox="0 0 669 364" width="669px" zoomAndPan="magnify"><defs/><g><ellipse cx="121" cy="50.0957" fill="#222222" rx="10" ry="10" style="stroke:#222222;stroke-width:1.0;"/><rect fill="#F1F1F1" height="50.1875" rx="12.5" ry="12.5" style="stroke:#181818;stroke-width:0.5;" width="170" x="36" y="80.0957"/><text fill="#000000" font-family="sans-serif" font-size="12" lengthAdjust="spacing" textLength="150" x="46" y="102.5527">Menampilkan nilai alternatif</text><text fill="#000000" font-family="sans-serif" font-size="12" lengthAdjust="spacing" textLength="132" x="46" y="117.6465">untuk setiap sub-kriteria</text><rect fill="#F1F1F1" height="35.0938" rx="12.5" ry="12.5" style="stroke:#181818;stroke-width:0.5;" width="200" x="21" y="275.5645"/><text fill="#000000" font-family="sans-serif" font-size="12" lengthAdjust="spacing" textLength="180" x="31" y="298.0215">Menampilkan tabel nilai alternatif</text><ellipse cx="121" cy="341.6582" fill="none" rx="11" ry="11" style="stroke:#222222;stroke-width:1.0;"/><ellipse cx="121" cy="341.6582" fill="#222222" rx="6" ry="6" style="stroke:#111111;stroke-width:1.0;"/><line style="stroke:#000000;stroke-width:1.5;" x1="15" x2="15" y1="12.4551" y2="352.6582"/><rect fill="#F1F1F1" height="50.1875" rx="12.5" ry="12.5" style="stroke:#181818;stroke-width:0.5;" width="246" x="231" y="150.2832"/><text fill="#000000" font-family="sans-serif" font-size="12" lengthAdjust="spacing" textLength="191" x="241" y="172.7402">Memasukkan nilai alternatif sesuai</text><text fill="#000000" font-family="sans-serif" font-size="12" lengthAdjust="spacing" textLength="226" x="241" y="187.834">dengan sub-kriteria yang telah ditentukan</text><line style="stroke:#000000;stroke-width:1.5;" x1="225" x2="225" y1="12.4551" y2="352.6582"/><rect fill="#F1F1F1" height="35.0938" rx="12.5" ry="12.5" style="stroke:#181818;stroke-width:0.5;" width="159" x="487" y="220.4707"/><text fill="#000000" font-family="sans-serif" font-size="12" lengthAdjust="spacing" textLength="139" x="497" y="242.9277">Menyimpan nilai alternatif</text><line style="stroke:#000000;stroke-width:1.5;" x1="481" x2="481" y1="12.4551" y2="352.6582"/><line style="stroke:#000000;stroke-width:1.5;" x1="650" x2="650" y1="12.4551" y2="352.6582"/><line style="stroke:#181818;stroke-width:1.0;" x1="121" x2="121" y1="60.0957" y2="80.0957"/><polygon fill="#181818" points="117,70.0957,121,80.0957,125,70.0957,121,74.0957" style="stroke:#181818;stroke-width:1.0;"/><line style="stroke:#181818;stroke-width:1.0;" x1="121" x2="121" y1="310.6582" y2="330.6582"/><polygon fill="#181818" points="117,320.6582,121,330.6582,125,320.6582,121,324.6582" style="stroke:#181818;stroke-width:1.0;"/><line style="stroke:#181818;stroke-width:1.0;" x1="121" x2="121" y1="130.2832" y2="135.2832"/><line style="stroke:#181818;stroke-width:1.0;" x1="121" x2="354" y1="135.2832" y2="135.2832"/><line style="stroke:#181818;stroke-width:1.0;" x1="354" x2="354" y1="135.2832" y2="150.2832"/><polygon fill="#181818" points="350,140.2832,354,150.2832,358,140.2832,354,144.2832" style="stroke:#181818;stroke-width:1.0;"/><line style="stroke:#181818;stroke-width:1.0;" x1="354" x2="354" y1="200.4707" y2="205.4707"/><line style="stroke:#181818;stroke-width:1.0;" x1="354" x2="566.5" y1="205.4707" y2="205.4707"/><line style="stroke:#181818;stroke-width:1.0;" x1="566.5" x2="566.5" y1="205.4707" y2="220.4707"/><polygon fill="#181818" points="562.5,210.4707,566.5,220.4707,570.5,210.4707,566.5,214.4707" style="stroke:#181818;stroke-width:1.0;"/><line style="stroke:#181818;stroke-width:1.0;" x1="566.5" x2="566.5" y1="255.5645" y2="260.5645"/><line style="stroke:#181818;stroke-width:1.0;" x1="566.5" x2="121" y1="260.5645" y2="260.5645"/><line style="stroke:#181818;stroke-width:1.0;" x1="121" x2="121" y1="260.5645" y2="275.5645"/><polygon fill="#181818" points="117,265.5645,121,275.5645,125,265.5645,121,269.5645" style="stroke:#181818;stroke-width:1.0;"/><text fill="#000000" font-family="sans-serif" font-size="18" lengthAdjust="spacing" textLength="61" x="89.5" y="31.1406">Aplikasi</text><text fill="#000000" font-family="sans-serif" font-size="18" lengthAdjust="spacing" textLength="82" x="312" y="31.1406">Pengguna</text><text fill="#000000" font-family="sans-serif" font-size="18" lengthAdjust="spacing" textLength="53" x="539" y="31.1406">Server</text><!--MD5=[7037f95807e00dcb3870b3a76bab3f60]
@startuml "Activity Diagram Nilai Alternatif Skripsi"
skinparam style strictuml
|Aplikasi|
start
:Menampilkan nilai alternatif
untuk setiap sub-kriteria;
|Pengguna|
:Memasukkan nilai alternatif sesuai
dengan sub-kriteria yang telah ditentukan;
|Server|
:Menyimpan nilai alternatif;
|Aplikasi|
:Menampilkan tabel nilai alternatif;
stop
@enduml

PlantUML version 1.2022.7(Tue Aug 23 00:01:30 WIB 2022)
(GPL source distribution)
Java Runtime: Java(TM) SE Runtime Environment
JVM: Java HotSpot(TM) 64-Bit Server VM
Default Encoding: Cp1252
Language: en
Country: US
--></g></svg>