<?xml version="1.0" encoding="UTF-8" standalone="no"?><svg xmlns="http://www.w3.org/2000/svg" xmlns:xlink="http://www.w3.org/1999/xlink" contentStyleType="text/css" height="294px" preserveAspectRatio="none" style="width:498px;height:294px;background:#FFFFFF;" version="1.1" viewBox="0 0 498 294" width="498px" zoomAndPan="magnify"><defs/><g><ellipse cx="144.5" cy="50.0957" fill="#222222" rx="10" ry="10" style="stroke:#222222;stroke-width:1.0;"/><rect fill="#F1F1F1" height="35.0938" rx="12.5" ry="12.5" style="stroke:#181818;stroke-width:0.5;" width="212" x="38.5" y="80.0957"/><text fill="#000000" font-family="sans-serif" font-size="12" lengthAdjust="spacing" textLength="192" x="48.5" y="102.5527">Memilih Matriks Ternormalisasi (R)</text><rect fill="#F1F1F1" height="35.0938" rx="12.5" ry="12.5" style="stroke:#181818;stroke-width:0.5;" width="247" x="21" y="205.377"/><text fill="#000000" font-family="sans-serif" font-size="12" lengthAdjust="spacing" textLength="227" x="31" y="227.834">Menampilkan nilai matriks ternormalisasi</text><ellipse cx="144.5" cy="271.4707" fill="none" rx="11" ry="11" style="stroke:#222222;stroke-width:1.0;"/><ellipse cx="144.5" cy="271.4707" fill="#222222" rx="6" ry="6" style="stroke:#111111;stroke-width:1.0;"/><line style="stroke:#000000;stroke-width:1.5;" x1="15" x2="15" y1="12.4551" y2="282.4707"/><rect fill="#F1F1F1" height="50.1875" rx="12.5" ry="12.5" style="stroke:#181818;stroke-width:0.5;" width="197" x="278" y="135.1895"/><text fill="#000000" font-family="sans-serif" font-size="12" lengthAdjust="spacing" textLength="177" x="288" y="157.6465">Menghitung matriks normalisasi</text><text fill="#000000" font-family="sans-serif" font-size="12" lengthAdjust="spacing" textLength="115" x="288" y="172.7402">berdasarkan metode</text><line style="stroke:#000000;stroke-width:1.5;" x1="272" x2="272" y1="12.4551" y2="282.4707"/><line style="stroke:#000000;stroke-width:1.5;" x1="479" x2="479" y1="12.4551" y2="282.4707"/><line style="stroke:#181818;stroke-width:1.0;" x1="144.5" x2="144.5" y1="60.0957" y2="80.0957"/><polygon fill="#181818" points="140.5,70.0957,144.5,80.0957,148.5,70.0957,144.5,74.0957" style="stroke:#181818;stroke-width:1.0;"/><line style="stroke:#181818;stroke-width:1.0;" x1="144.5" x2="144.5" y1="240.4707" y2="260.4707"/><polygon fill="#181818" points="140.5,250.4707,144.5,260.4707,148.5,250.4707,144.5,254.4707" style="stroke:#181818;stroke-width:1.0;"/><line style="stroke:#181818;stroke-width:1.0;" x1="144.5" x2="144.5" y1="115.1895" y2="120.1895"/><line style="stroke:#181818;stroke-width:1.0;" x1="144.5" x2="376.5" y1="120.1895" y2="120.1895"/><line style="stroke:#181818;stroke-width:1.0;" x1="376.5" x2="376.5" y1="120.1895" y2="135.1895"/><polygon fill="#181818" points="372.5,125.1895,376.5,135.1895,380.5,125.1895,376.5,129.1895" style="stroke:#181818;stroke-width:1.0;"/><line style="stroke:#181818;stroke-width:1.0;" x1="376.5" x2="376.5" y1="185.377" y2="190.377"/><line style="stroke:#181818;stroke-width:1.0;" x1="376.5" x2="144.5" y1="190.377" y2="190.377"/><line style="stroke:#181818;stroke-width:1.0;" x1="144.5" x2="144.5" y1="190.377" y2="205.377"/><polygon fill="#181818" points="140.5,195.377,144.5,205.377,148.5,195.377,144.5,199.377" style="stroke:#181818;stroke-width:1.0;"/><text fill="#000000" font-family="sans-serif" font-size="18" lengthAdjust="spacing" textLength="61" x="113" y="31.1406">Aplikasi</text><text fill="#000000" font-family="sans-serif" font-size="18" lengthAdjust="spacing" textLength="53" x="349" y="31.1406">Server</text><!--MD5=[205449a4b071160ead26de1c69fc482e]
@startuml "Activity Diagram Hasil Skripsi"
skinparam style strictuml
|Aplikasi|
start
:Memilih Matriks Ternormalisasi (R);
|Server|
:Menghitung matriks normalisasi
berdasarkan metode;
|Aplikasi|
:Menampilkan nilai matriks ternormalisasi;
stop
@enduml

PlantUML version 1.2022.7(Tue Aug 23 00:01:30 WIB 2022)
(GPL source distribution)
Java Runtime: Java(TM) SE Runtime Environment
JVM: Java HotSpot(TM) 64-Bit Server VM
Default Encoding: Cp1252
Language: en
Country: US
--></g></svg>