<?xml version="1.0" encoding="UTF-8" standalone="no"?><svg xmlns="http://www.w3.org/2000/svg" xmlns:xlink="http://www.w3.org/1999/xlink" contentStyleType="text/css" height="572px" preserveAspectRatio="none" style="width:571px;height:572px;background:#FFFFFF;" version="1.1" viewBox="0 0 571 572" width="571px" zoomAndPan="magnify"><defs/><g><ellipse cx="137.5" cy="20" fill="#222222" rx="10" ry="10" style="stroke:#222222;stroke-width:1.0;"/><rect fill="#F1F1F1" height="35.0938" rx="12.5" ry="12.5" style="stroke:#181818;stroke-width:0.5;" width="96" x="89.5" y="50"/><text fill="#000000" font-family="sans-serif" font-size="12" lengthAdjust="spacing" textLength="76" x="99.5" y="72.457">Scraping data</text><rect fill="#F1F1F1" height="35.0938" rx="12.5" ry="12.5" style="stroke:#181818;stroke-width:0.5;" width="214" x="30.5" y="105.0938"/><text fill="#000000" font-family="sans-serif" font-size="12" lengthAdjust="spacing" textLength="194" x="40.5" y="127.5508">Menganalisa data yang di dapatkan</text><rect fill="#F1F1F1" height="35.0938" rx="12.5" ry="12.5" style="stroke:#181818;stroke-width:0.5;" width="161" x="57" y="160.1875"/><text fill="#000000" font-family="sans-serif" font-size="12" lengthAdjust="spacing" textLength="141" x="67" y="182.6445">Membuat index pada data</text><rect fill="#F1F1F1" height="35.0938" rx="12.5" ry="12.5" style="stroke:#181818;stroke-width:0.5;" width="214" x="30.5" y="215.2813"/><text fill="#000000" font-family="sans-serif" font-size="12" lengthAdjust="spacing" textLength="194" x="40.5" y="237.7383">Memasukkan data ke server Algolia</text><rect fill="none" height="301.1436" style="stroke:#000000;stroke-width:1.5;" width="549.5" x="11" y="260.375"/><path d="M110,260.375 L110,270.9844 L100,280.9844 L11,280.9844 " fill="none" style="stroke:#000000;stroke-width:1.5;"/><text fill="#000000" font-family="sans-serif" font-size="14" lengthAdjust="spacing" textLength="89" x="14" y="275.9082">Mesin Pencari</text><rect fill="#F1F1F1" height="35.0938" rx="12.5" ry="12.5" style="stroke:#181818;stroke-width:0.5;" width="218" x="28.5" y="297.9844"/><text fill="#000000" font-family="sans-serif" font-size="12" lengthAdjust="spacing" textLength="198" x="38.5" y="320.4414">User Memasukkan Query Pencarian</text><polygon fill="#F1F1F1" points="47,408.1719,228,408.1719,240,420.1719,228,432.1719,47,432.1719,35,420.1719,47,408.1719" style="stroke:#181818;stroke-width:0.5;"/><text fill="#000000" font-family="sans-serif" font-size="11" lengthAdjust="spacing" textLength="181" x="47" y="424.6729">input query == index data di database</text><text fill="#000000" font-family="sans-serif" font-size="11" lengthAdjust="spacing" textLength="15" x="240" y="417.7549">NO</text><rect fill="#F1F1F1" height="35.0938" rx="12.5" ry="12.5" style="stroke:#181818;stroke-width:0.5;" width="284" x="266.5" y="343.0781"/><text fill="#000000" font-family="sans-serif" font-size="12" lengthAdjust="spacing" textLength="264" x="276.5" y="365.5352">Menampilkan tampilan tidak ada pada database</text><rect fill="#F1F1F1" height="35.0938" rx="12.5" ry="12.5" style="stroke:#181818;stroke-width:0.5;" width="233" x="21" y="474.4248"/><text fill="#000000" font-family="sans-serif" font-size="12" lengthAdjust="spacing" textLength="213" x="31" y="496.8818">Menampilkan tampilan hasil pencarian</text><ellipse cx="137.5" cy="539.5186" fill="none" rx="10" ry="10" style="stroke:#222222;stroke-width:1.5;"/><line style="stroke:#222222;stroke-width:2.5;" x1="131.3128" x2="143.6872" y1="533.3314" y2="545.7057"/><line style="stroke:#222222;stroke-width:2.5;" x1="143.6872" x2="131.3128" y1="533.3314" y2="545.7057"/><line style="stroke:#181818;stroke-width:1.0;" x1="137.5" x2="137.5" y1="30" y2="50"/><polygon fill="#181818" points="133.5,40,137.5,50,141.5,40,137.5,44" style="stroke:#181818;stroke-width:1.0;"/><line style="stroke:#181818;stroke-width:1.0;" x1="137.5" x2="137.5" y1="85.0938" y2="105.0938"/><polygon fill="#181818" points="133.5,95.0938,137.5,105.0938,141.5,95.0938,137.5,99.0938" style="stroke:#181818;stroke-width:1.0;"/><line style="stroke:#181818;stroke-width:1.0;" x1="137.5" x2="137.5" y1="140.1875" y2="160.1875"/><polygon fill="#181818" points="133.5,150.1875,137.5,160.1875,141.5,150.1875,137.5,154.1875" style="stroke:#181818;stroke-width:1.0;"/><line style="stroke:#181818;stroke-width:1.0;" x1="137.5" x2="137.5" y1="195.2813" y2="215.2813"/><polygon fill="#181818" points="133.5,205.2813,137.5,215.2813,141.5,205.2813,137.5,209.2813" style="stroke:#181818;stroke-width:1.0;"/><line style="stroke:#181818;stroke-width:1.0;" x1="137.5" x2="137.5" y1="333.0781" y2="408.1719"/><polygon fill="#181818" points="133.5,398.1719,137.5,408.1719,141.5,398.1719,137.5,402.1719" style="stroke:#181818;stroke-width:1.0;"/><line style="stroke:#181818;stroke-width:1.0;" x1="240" x2="408.5" y1="420.1719" y2="420.1719"/><line style="stroke:#181818;stroke-width:1.0;" x1="408.5" x2="408.5" y1="378.1719" y2="420.1719"/><polygon fill="#181818" points="404.5,388.1719,408.5,378.1719,412.5,388.1719,408.5,384.1719" style="stroke:#181818;stroke-width:1.0;"/><line style="stroke:#181818;stroke-width:1.0;" x1="408.5" x2="408.5" y1="315.5313" y2="343.0781"/><line style="stroke:#181818;stroke-width:1.0;" x1="408.5" x2="246.5" y1="315.5313" y2="315.5313"/><polygon fill="#181818" points="256.5,311.5313,246.5,315.5313,256.5,319.5313,252.5,315.5313" style="stroke:#181818;stroke-width:1.0;"/><line style="stroke:#181818;stroke-width:1.0;" x1="137.5" x2="137.5" y1="432.1719" y2="474.4248"/><polygon fill="#181818" points="133.5,464.4248,137.5,474.4248,141.5,464.4248,137.5,468.4248" style="stroke:#181818;stroke-width:1.0;"/><text fill="#000000" font-family="sans-serif" font-size="11" lengthAdjust="spacing" textLength="21" x="141.5" y="454.5078">YES</text><line style="stroke:#181818;stroke-width:1.0;" x1="137.5" x2="137.5" y1="509.5186" y2="529.5186"/><polygon fill="#181818" points="133.5,519.5186,137.5,529.5186,141.5,519.5186,137.5,523.5186" style="stroke:#181818;stroke-width:1.0;"/><line style="stroke:#181818;stroke-width:1.0;" x1="137.5" x2="137.5" y1="250.375" y2="297.9844"/><polygon fill="#181818" points="133.5,287.9844,137.5,297.9844,141.5,287.9844,137.5,291.9844" style="stroke:#181818;stroke-width:1.0;"/><!--MD5=[f59b3a3394f05c9d256cbc5232ebe300]
@startuml "KP Flowchart"
start
    :Scraping data;
    :Menganalisa data yang di dapatkan;
    :Membuat index pada data;
    :Memasukkan data ke server Algolia;
    partition "Mesin Pencari"
    repeat :User Memasukkan Query Pencarian;
    backward :Menampilkan tampilan tidak ada pada database;
    repeat while (input query == index data di database) is (NO)
    ->YES;
    :Menampilkan tampilan hasil pencarian;
end
@enduml

PlantUML version 1.2022.7(Tue Aug 23 00:01:30 WIB 2022)
(GPL source distribution)
Java Runtime: Java(TM) SE Runtime Environment
JVM: Java HotSpot(TM) 64-Bit Server VM
Default Encoding: Cp1252
Language: en
Country: US
--></g></svg>