<?xml version="1.0" encoding="UTF-8" standalone="no"?><svg xmlns="http://www.w3.org/2000/svg" xmlns:xlink="http://www.w3.org/1999/xlink" contentStyleType="text/css" height="599px" preserveAspectRatio="none" style="width:331px;height:599px;background:#FFFFFF;" version="1.1" viewBox="0 0 331 599" width="331px" zoomAndPan="magnify"><defs/><g><ellipse cx="152" cy="20" fill="#222222" rx="10" ry="10" style="stroke:#222222;stroke-width:1.0;"/><rect fill="#F1F1F1" height="35.0938" rx="12.5" ry="12.5" style="stroke:#181818;stroke-width:0.5;" width="262" x="21" y="50"/><text fill="#000000" font-family="sans-serif" font-size="12" lengthAdjust="spacing" textLength="242" x="31" y="72.457">Mendeskripsikan dan Menganalisa Masalah</text><rect fill="#F1F1F1" height="35.0938" rx="12.5" ry="12.5" style="stroke:#181818;stroke-width:0.5;" width="96" x="104" y="105.0938"/><text fill="#000000" font-family="sans-serif" font-size="12" lengthAdjust="spacing" textLength="76" x="114" y="127.5508">Studi Literatur</text><rect fill="#F1F1F1" height="35.0938" rx="12.5" ry="12.5" style="stroke:#181818;stroke-width:0.5;" width="236" x="34" y="215.2813"/><text fill="#000000" font-family="sans-serif" font-size="12" lengthAdjust="spacing" textLength="216" x="44" y="237.7383">Pengujian Metode-Metode pada Sistem</text><rect fill="#F1F1F1" height="35.0938" rx="12.5" ry="12.5" style="stroke:#181818;stroke-width:0.5;" width="267" x="18.5" y="160.1875"/><text fill="#000000" font-family="sans-serif" font-size="12" lengthAdjust="spacing" textLength="247" x="28.5" y="182.6445">Perancangan dan Pembuatan Algoritma SPK</text><polygon fill="#F1F1F1" points="44,270.375,260,270.375,272,282.375,260,294.375,44,294.375,32,282.375,44,270.375" style="stroke:#181818;stroke-width:0.5;"/><text fill="#000000" font-family="sans-serif" font-size="11" lengthAdjust="spacing" textLength="216" x="44" y="286.876">Apakah Setiap Metode berjalan dengan baik?</text><text fill="#000000" font-family="sans-serif" font-size="11" lengthAdjust="spacing" textLength="15" x="272" y="279.958">NO</text><rect fill="#F1F1F1" height="35.0938" rx="12.5" ry="12.5" style="stroke:#181818;stroke-width:0.5;" width="173" x="65.5" y="391.7217"/><text fill="#000000" font-family="sans-serif" font-size="12" lengthAdjust="spacing" textLength="153" x="75.5" y="414.1787">Pengujian Sistem Informasi</text><rect fill="#F1F1F1" height="35.0938" rx="12.5" ry="12.5" style="stroke:#181818;stroke-width:0.5;" width="282" x="11" y="336.6279"/><text fill="#000000" font-family="sans-serif" font-size="12" lengthAdjust="spacing" textLength="262" x="21" y="359.085">Perancangan dan Pembuatan Sistem Informasi</text><polygon fill="#F1F1F1" points="41.5,446.8154,262.5,446.8154,274.5,458.8154,262.5,470.8154,41.5,470.8154,29.5,458.8154,41.5,446.8154" style="stroke:#181818;stroke-width:0.5;"/><text fill="#000000" font-family="sans-serif" font-size="11" lengthAdjust="spacing" textLength="221" x="41.5" y="463.3164">Apakah Sistem Informasi berjalan dengan baik</text><text fill="#000000" font-family="sans-serif" font-size="11" lengthAdjust="spacing" textLength="15" x="274.5" y="456.3984">NO</text><rect fill="#F1F1F1" height="35.0938" rx="12.5" ry="12.5" style="stroke:#181818;stroke-width:0.5;" width="94" x="105" y="513.0684"/><text fill="#000000" font-family="sans-serif" font-size="12" lengthAdjust="spacing" textLength="74" x="115" y="535.5254">Analisis hasil</text><ellipse cx="152" cy="578.1621" fill="none" rx="10" ry="10" style="stroke:#222222;stroke-width:1.5;"/><line style="stroke:#222222;stroke-width:2.5;" x1="145.8128" x2="158.1872" y1="571.9749" y2="584.3493"/><line style="stroke:#222222;stroke-width:2.5;" x1="158.1872" x2="145.8128" y1="571.9749" y2="584.3493"/><line style="stroke:#181818;stroke-width:1.0;" x1="152" x2="152" y1="30" y2="50"/><polygon fill="#181818" points="148,40,152,50,156,40,152,44" style="stroke:#181818;stroke-width:1.0;"/><line style="stroke:#181818;stroke-width:1.0;" x1="152" x2="152" y1="85.0938" y2="105.0938"/><polygon fill="#181818" points="148,95.0938,152,105.0938,156,95.0938,152,99.0938" style="stroke:#181818;stroke-width:1.0;"/><line style="stroke:#181818;stroke-width:1.0;" x1="152" x2="152" y1="195.2813" y2="215.2813"/><polygon fill="#181818" points="148,205.2813,152,215.2813,156,205.2813,152,209.2813" style="stroke:#181818;stroke-width:1.0;"/><line style="stroke:#181818;stroke-width:1.0;" x1="272" x2="297.5" y1="282.375" y2="282.375"/><polygon fill="#181818" points="293.5,240.0547,297.5,230.0547,301.5,240.0547,297.5,236.0547" style="stroke:#181818;stroke-width:1.0;"/><line style="stroke:#181818;stroke-width:1.0;" x1="297.5" x2="297.5" y1="177.7344" y2="282.375"/><line style="stroke:#181818;stroke-width:1.0;" x1="297.5" x2="285.5" y1="177.7344" y2="177.7344"/><polygon fill="#181818" points="295.5,173.7344,285.5,177.7344,295.5,181.7344,291.5,177.7344" style="stroke:#181818;stroke-width:1.0;"/><line style="stroke:#181818;stroke-width:1.0;" x1="152" x2="152" y1="250.375" y2="270.375"/><polygon fill="#181818" points="148,260.375,152,270.375,156,260.375,152,264.375" style="stroke:#181818;stroke-width:1.0;"/><line style="stroke:#181818;stroke-width:1.0;" x1="152" x2="152" y1="140.1875" y2="160.1875"/><polygon fill="#181818" points="148,150.1875,152,160.1875,156,150.1875,152,154.1875" style="stroke:#181818;stroke-width:1.0;"/><line style="stroke:#181818;stroke-width:1.0;" x1="152" x2="152" y1="371.7217" y2="391.7217"/><polygon fill="#181818" points="148,381.7217,152,391.7217,156,381.7217,152,385.7217" style="stroke:#181818;stroke-width:1.0;"/><line style="stroke:#181818;stroke-width:1.0;" x1="274.5" x2="305" y1="458.8154" y2="458.8154"/><polygon fill="#181818" points="301,416.4951,305,406.4951,309,416.4951,305,412.4951" style="stroke:#181818;stroke-width:1.0;"/><line style="stroke:#181818;stroke-width:1.0;" x1="305" x2="305" y1="354.1748" y2="458.8154"/><line style="stroke:#181818;stroke-width:1.0;" x1="305" x2="293" y1="354.1748" y2="354.1748"/><polygon fill="#181818" points="303,350.1748,293,354.1748,303,358.1748,299,354.1748" style="stroke:#181818;stroke-width:1.0;"/><line style="stroke:#181818;stroke-width:1.0;" x1="152" x2="152" y1="426.8154" y2="446.8154"/><polygon fill="#181818" points="148,436.8154,152,446.8154,156,436.8154,152,440.8154" style="stroke:#181818;stroke-width:1.0;"/><line style="stroke:#181818;stroke-width:1.0;" x1="152" x2="152" y1="294.375" y2="336.6279"/><polygon fill="#181818" points="148,326.6279,152,336.6279,156,326.6279,152,330.6279" style="stroke:#181818;stroke-width:1.0;"/><text fill="#000000" font-family="sans-serif" font-size="11" lengthAdjust="spacing" textLength="21" x="156" y="316.7109">YES</text><line style="stroke:#181818;stroke-width:1.0;" x1="152" x2="152" y1="470.8154" y2="513.0684"/><polygon fill="#181818" points="148,503.0684,152,513.0684,156,503.0684,152,507.0684" style="stroke:#181818;stroke-width:1.0;"/><text fill="#000000" font-family="sans-serif" font-size="11" lengthAdjust="spacing" textLength="21" x="156" y="493.1514">YES</text><line style="stroke:#181818;stroke-width:1.0;" x1="152" x2="152" y1="548.1621" y2="568.1621"/><polygon fill="#181818" points="148,558.1621,152,568.1621,156,558.1621,152,562.1621" style="stroke:#181818;stroke-width:1.0;"/><!--MD5=[5f4d42090bd46411bec0b6bb055668dc]
@startuml "Skripsi1"
start
    :Mendeskripsikan dan Menganalisa Masalah;
    :Studi Literatur;
    repeat :Perancangan dan Pembuatan Algoritma SPK;
    :Pengujian Metode-Metode pada Sistem;
    ' backward :Menampilkan tampilan tidak ada pada database;
    repeat while (Apakah Setiap Metode berjalan dengan baik?) is (NO)
    ->YES;
    repeat :Perancangan dan Pembuatan Sistem Informasi;
    :Pengujian Sistem Informasi;
    repeat while (Apakah Sistem Informasi berjalan dengan baik) is (NO)
    ->YES;
    :Analisis hasil;
end
@enduml

@startuml "Skripsi1"
start
    :Mendeskripsikan dan Menganalisa Masalah;
    :Studi Literatur;
    repeat :Perancangan dan Pembuatan Algoritma SPK;
    :Pengujian Metode-Metode pada Sistem;
    repeat while (Apakah Setiap Metode berjalan dengan baik?) is (NO)
    ->YES;
    repeat :Perancangan dan Pembuatan Sistem Informasi;
    :Pengujian Sistem Informasi;
    repeat while (Apakah Sistem Informasi berjalan dengan baik) is (NO)
    ->YES;
    :Analisis hasil;
end
@enduml

PlantUML version 1.2022.7(Tue Aug 23 00:01:30 WIB 2022)
(GPL source distribution)
Java Runtime: Java(TM) SE Runtime Environment
JVM: Java HotSpot(TM) 64-Bit Server VM
Default Encoding: Cp1252
Language: en
Country: US
--></g></svg>